<svg xmlns="http://www.w3.org/2000/svg" viewBox="0 0 50 50" fill="currentColor"><path d="M 25 0 C 12.859375 0 3 9.859375 3 22 C 3 27.320313 4.886719 32.195313 8.03125 36 L 3.3125 36 C 2.953125 35.996094 2.617188 36.183594 2.433594 36.496094 C 2.253906 36.808594 2.253906 37.191406 2.433594 37.503906 C 2.617188 37.816406 2.953125 38.003906 3.3125 38 L 12 38 L 12 29.3125 C 12.003906 29.023438 11.878906 28.75 11.664063 28.558594 C 11.449219 28.367188 11.160156 28.277344 10.875 28.3125 C 10.371094 28.375 9.996094 28.804688 10 29.3125 L 10 35.1875 C 6.898438 31.664063 5 27.070313 5 22 C 5 10.941406 13.941406 2 25 2 C 36.058594 2 45 10.941406 45 22 C 45 27.285156 42.96875 32.082031 39.625 35.65625 C 39.332031 35.902344 39.207031 36.296875 39.300781 36.664063 C 39.394531 37.035156 39.695313 37.320313 40.066406 37.398438 C 40.441406 37.476563 40.828125 37.332031 41.0625 37.03125 C 44.738281 33.101563 47 27.800781 47 22 C 47 9.859375 37.140625 0 25 0 Z M 24.875 7.40625 C 20.203125 7.492188 17.21875 9.378906 15.9375 12.3125 C 14.714844 15.105469 14.988281 18.632813 15.875 22.28125 C 15.398438 22.839844 15.019531 23.589844 15.15625 24.71875 C 15.304688 25.949219 15.644531 26.824219 16.125 27.4375 C 16.390625 27.773438 16.738281 27.804688 17.0625 27.96875 C 17.238281 29.015625 17.53125 30.0625 17.96875 30.9375 C 18.21875 31.441406 18.503906 31.90625 18.78125 32.28125 C 18.90625 32.449219 19.085938 32.546875 19.21875 32.6875 C 19.226563 33.921875 19.230469 34.949219 19.125 36.25 C 18.800781 37.035156 18.042969 37.667969 16.8125 38.28125 C 15.542969 38.914063 13.890625 39.5 12.21875 40.21875 C 10.546875 40.9375 8.828125 41.8125 7.46875 43.1875 C 6.109375 44.5625 5.148438 46.449219 5 48.9375 L 4.9375 50 L 45.0625 50 L 45 48.9375 C 44.851563 46.449219 43.886719 44.5625 42.53125 43.1875 C 41.175781 41.8125 39.476563 40.9375 37.8125 40.21875 C 36.148438 39.5 34.515625 38.914063 33.25 38.28125 C 32.035156 37.671875 31.269531 37.054688 30.9375 36.28125 C 30.828125 34.964844 30.835938 33.929688 30.84375 32.6875 C 30.972656 32.546875 31.160156 32.449219 31.28125 32.28125 C 31.554688 31.902344 31.816406 31.4375 32.0625 30.9375 C 32.488281 30.0625 32.796875 29.011719 32.96875 27.96875 C 33.28125 27.804688 33.617188 27.765625 33.875 27.4375 C 34.355469 26.824219 34.695313 25.949219 34.84375 24.71875 C 34.976563 23.625 34.609375 22.902344 34.15625 22.34375 C 34.644531 20.757813 35.269531 18.195313 35.0625 15.5625 C 34.949219 14.125 34.582031 12.691406 33.71875 11.5 C 32.929688 10.40625 31.648438 9.609375 30.03125 9.28125 C 28.980469 7.917969 27.089844 7.40625 24.90625 7.40625 Z"/></svg>
