<svg xmlns="http://www.w3.org/2000/svg" viewBox="0 0 50 50" fill="currentColor"><path d="M 12 0 C 11.477778 0 10.94539 0.19132887 10.568359 0.56835938 C 10.191329 0.94538988 10 1.4777778 10 2 L 10 4 L 4 4 C 3.4777778 4 2.9453899 4.1913289 2.5683594 4.5683594 C 2.1913289 4.9453899 2 5.4777778 2 6 L 2 14 L 2 46 C 2 46.522222 2.1913289 47.05461 2.5683594 47.431641 C 2.9453899 47.808671 3.4777778 48 4 48 L 46 48 C 46.522222 48 47.05461 47.808671 47.431641 47.431641 C 47.808671 47.05461 48 46.522222 48 46 L 48 14 L 48 6 C 48 5.4777778 47.808671 4.9453899 47.431641 4.5683594 C 47.05461 4.1913289 46.522222 4 46 4 L 40 4 L 40 2 C 40 1.4777778 39.808671 0.94538988 39.431641 0.56835938 C 39.05461 0.19132887 38.522222 0 38 0 L 36 0 C 35.477778 0 34.94539 0.19132887 34.568359 0.56835938 C 34.191329 0.94538988 34 1.4777778 34 2 L 34 4 L 16 4 L 16 2 C 16 1.4777778 15.808671 0.94538988 15.431641 0.56835938 C 15.05461 0.19132887 14.522222 0 14 0 L 12 0 z M 12 2 L 14 2 L 14 8 L 12 8 L 12 2 z M 36 2 L 38 2 L 38 8 L 36 8 L 36 2 z M 4 6 L 10 6 L 10 8 C 10 8.5222222 10.191329 9.0546101 10.568359 9.4316406 C 10.94539 9.8086711 11.477778 10 12 10 L 14 10 C 14.522222 10 15.05461 9.8086711 15.431641 9.4316406 C 15.808671 9.0546101 16 8.5222222 16 8 L 16 6 L 34 6 L 34 8 C 34 8.5222222 34.191329 9.0546101 34.568359 9.4316406 C 34.94539 9.8086711 35.477778 10 36 10 L 38 10 C 38.522222 10 39.05461 9.8086711 39.431641 9.4316406 C 39.808671 9.0546101 40 8.5222222 40 8 L 40 6 L 46 6 L 46 13 L 4 13 L 4 6 z M 4 15 L 46 15 L 46 46 L 4 46 L 4 15 z M 11 19 L 11 26 L 18 26 L 18 19 L 11 19 z M 18 28 L 11 28 L 11 35 L 18 35 L 18 28 z M 20 35 L 27 35 L 27 28 L 20 28 L 20 35 z M 29 35 L 36 35 L 36 28 L 29 28 L 29 35 z M 29 19 L 29 26 L 36 26 L 36 19 L 29 19 z M 20 26 L 27 26 L 27 19 L 20 19 L 20 26 z"/></svg>
