<svg xmlns="http://www.w3.org/2000/svg" viewBox="0 0 50 50" fill="currentColor"><path d="M 9 4 C 6.2545455 4 4 6.2545455 4 9 L 4 41 C 4 43.745455 6.2545455 46 9 46 L 41 46 C 43.745455 46 46 43.745455 46 41 L 46 9 C 46 6.2545455 43.745455 4 41 4 L 9 4 z M 9 6 L 41 6 C 42.654545 6 44 7.3454545 44 9 L 44 41 C 44 42.654545 42.654545 44 41 44 L 9 44 C 7.3454545 44 6 42.654545 6 41 L 6 9 C 6 7.3454545 7.3454545 6 9 6 z M 16.707031 15.292969 L 15.292969 16.707031 L 23.585938 25 L 15.292969 33.292969 L 16.707031 34.707031 L 25 26.414062 L 33.292969 34.707031 L 34.707031 33.292969 L 26.414062 25 L 34.707031 16.707031 L 33.292969 15.292969 L 25 23.585938 L 16.707031 15.292969 z"/></svg>
