<svg xmlns="http://www.w3.org/2000/svg" fill="currentColor" viewBox="0 0 50 50"><path d="M 25 3 C 24.065529 3 22.342634 3.1922485 20.857422 4.4609375 C 20.398681 4.8083214 19.373867 5.711436 17.886719 7 L 11 7 A 1.0001 1.0001 0 0 0 10 8 L 10 13.962891 C 6.471313 17.084086 3.3339844 19.878906 3.3339844 19.878906 A 1.0001 1.0001 0 0 0 3 20.625 L 3 46 A 1.0001 1.0001 0 0 0 4 47 L 46 47 A 1.0001 1.0001 0 0 0 47 46 L 47 20.625 A 1.0001 1.0001 0 0 0 46.666016 19.878906 C 46.666016 19.878906 43.528795 17.083407 40 13.962891 L 40 8 A 1.0001 1.0001 0 0 0 39 7 L 32.052734 7 C 30.621699 5.7124523 29.597448 4.8047971 29.140625 4.4589844 C 27.65593 3.1920488 25.933993 3 25 3 z M 25 5 C 25.639946 5 26.886525 5.1588743 27.849609 5.984375 A 1.0001 1.0001 0 0 0 27.900391 6.0253906 C 27.959185 6.0694411 28.697665 6.7277272 29.013672 7 L 20.960938 7 C 21.279381 6.7285566 22.041101 6.0692269 22.099609 6.0253906 A 1.0001 1.0001 0 0 0 22.150391 5.984375 C 23.113477 5.1588747 24.360054 5 25 5 z M 12 9 L 17.988281 9 A 1.0001 1.0001 0 0 0 18.462891 9 L 31.513672 9 A 1.0001 1.0001 0 0 0 31.859375 9 L 38 9 L 38 14.417969 L 38 26.542969 L 32.361328 30.980469 C 31.298143 30.145647 29.356777 28.62871 29.125 28.443359 C 27.584365 27.210381 25.936054 27 25 27 C 23.990342 27 22.424011 27.305375 20.908203 28.417969 C 20.632913 28.619667 18.627455 30.201185 17.632812 30.976562 L 12 26.542969 L 12 14.546875 A 1.0001 1.0001 0 0 0 12 14.246094 L 12 9 z M 16 14 A 1.0001 1.0001 0 1 0 16 16 L 34 16 A 1.0001 1.0001 0 1 0 34 14 L 16 14 z M 10 16.636719 L 10 24.966797 L 5.0253906 21.050781 C 5.2639072 20.838199 7.6995528 18.67611 10 16.636719 z M 40 16.636719 C 42.300878 18.676338 44.736918 20.840822 44.974609 21.052734 L 40 24.96875 L 40 16.636719 z M 16 19 A 1.0001 1.0001 0 1 0 16 21 L 27 21 A 1.0001 1.0001 0 1 0 27 19 L 16 19 z M 5 23.578125 L 16.009766 32.244141 C 14.380662 33.519885 13.64873 34.080591 11.683594 35.625 C 8.2747801 38.304 6.1117199 40.008897 5 40.884766 L 5 23.578125 z M 45 23.578125 L 45 40.888672 C 43.543056 39.746848 38.508414 35.801673 33.982422 32.251953 L 45 23.578125 z M 25 29 C 25.639946 29 26.791635 29.138837 27.875 30.005859 C 29.231039 31.090278 44.471585 43.016199 45 43.429688 L 45 45 L 5 45 L 5 43.427734 C 5.2740923 43.211869 8.8819407 40.370731 12.919922 37.197266 C 17.108371 33.905547 21.554155 30.425166 22.091797 30.03125 C 23.199989 29.217844 24.433658 29 25 29 z"/></svg>
