<svg xmlns="http://www.w3.org/2000/svg" fill="currentColor" viewBox="0 0 50 50"><path d="M 12 2 C 8.6983746 2 6 4.6983746 6 8 L 6 41.417969 C 6 44.591903 8.832306 47 12 47 L 12 45 C 9.841694 45 8 43.378035 8 41.417969 C 8 39.457903 9.8001368 38 12 38 L 44 38 L 44 2 L 12 2 z M 12 4 L 34 4 L 34 36 L 12 36 C 10.506931 36 9.0923623 36.537598 8 37.417969 L 8 8 C 8 5.7796254 9.7796254 4 12 4 z M 36 4 L 42 4 L 42 36 L 36 36 L 36 4 z M 14 40 L 14 49 A 1.0001 1.0001 0 0 0 15.599609 49.800781 L 19 47.25 L 22.400391 49.800781 A 1.0001 1.0001 0 0 0 24 49 L 24 40 L 22 40 L 22 47 L 19.599609 45.199219 A 1.0001 1.0001 0 0 0 18.400391 45.199219 L 16 47 L 16 40 L 14 40 z M 26 45 L 26 47 L 44 47 L 44 45 L 26 45 z"/></svg>
