<svg xmlns="http://www.w3.org/2000/svg" fill="currentColor" viewBox="0 0 50 50"><path d="M 25 0.09765625 C 22.547958 0.09765625 20.476261 1.4626493 17.404297 3.0429688 C 14.332333 4.6232881 10.218879 6.5308264 3.7851562 7.9433594 L 3 8.1152344 L 3 8.9199219 C 3 24.240387 8.3569062 34.470001 13.736328 40.818359 C 19.11575 47.166718 24.580078 49.699219 24.580078 49.699219 L 25.021484 49.902344 L 25.453125 49.681641 C 25.453125 49.681641 47 38.576752 47 8.9199219 L 47 8.1152344 L 46.214844 7.9433594 C 39.781121 6.5308264 35.667667 4.6232881 32.595703 3.0429688 C 29.523739 1.4626492 27.452042 0.09765625 25 0.09765625 z M 25 2.0976562 C 26.645958 2.0976562 28.543854 3.208085 31.681641 4.8222656 C 34.659993 6.3544283 38.861465 8.2123285 44.935547 9.6445312 C 44.581274 36.77605 26.277963 46.936655 24.984375 47.619141 C 24.359733 47.315673 20.031171 45.151607 15.263672 39.525391 C 10.23404 33.589826 5.2403214 24.057953 5.0625 9.6445312 C 11.137725 8.2122689 15.33967 6.3546016 18.318359 4.8222656 C 21.456146 3.208085 23.354042 2.0976562 25 2.0976562 z M 25 11 C 21.7 11 19 13.799219 19 17.199219 L 19 19 L 17.900391 19 C 16.800391 19 16 19.900391 16 20.900391 L 16 31 C 16 32.1 16.800391 33 17.900391 33 L 32.099609 33 C 33.099609 33 34 32.099609 34 31.099609 L 34 20.900391 C 34 19.900391 33.199609 19 32.099609 19 L 31 19 L 31 17.199219 C 31 13.799219 28.3 11 25 11 z M 25 13 C 27.2 13 29 14.899219 29 17.199219 L 29 19 L 21 19 L 21 17.199219 C 21 14.899219 22.8 13 25 13 z M 18 21 L 32 21 L 32 31 L 18 31 L 18 21 z M 25 24 C 24.2 24 23.599609 24.600391 23.599609 25.400391 C 23.599609 25.800391 23.799609 26.100391 24.099609 26.400391 L 24.099609 27.699219 C 24.099609 28.199219 24.5 28.599609 25 28.599609 C 25.5 28.599609 25.900391 28.199219 25.900391 27.699219 L 25.900391 26.400391 C 26.200391 26.100391 26.400391 25.800391 26.400391 25.400391 C 26.400391 24.600391 25.8 24 25 24 z"/></svg>
