<svg xmlns="http://www.w3.org/2000/svg" fill="currentColor" viewBox="0 0 50 50"><path d="M 14 4 C 8.4886661 4 4 8.4886661 4 14 L 4 36 C 4 41.511334 8.4886661 46 14 46 L 36 46 C 41.511334 46 46 41.511334 46 36 L 46 14 C 46 8.4886661 41.511334 4 36 4 L 14 4 z M 14 6 L 36 6 C 40.430666 6 44 9.5693339 44 14 L 44 36 C 44 40.430666 40.430666 44 36 44 L 14 44 C 9.5693339 44 6 40.430666 6 36 L 6 14 C 6 9.5693339 9.5693339 6 14 6 z M 20.984375 14.986328 A 1.0001 1.0001 0 0 0 20.841797 15 L 12 15 A 1.0001 1.0001 0 0 0 11 16 L 11 21.832031 A 1.0001 1.0001 0 0 0 11 22.158203 L 11 27.832031 A 1.0001 1.0001 0 0 0 11 28.158203 L 11 34 A 1.0001 1.0001 0 0 0 12 35 L 20.832031 35 A 1.0001 1.0001 0 0 0 21.158203 35 L 38 35 A 1.0001 1.0001 0 0 0 39 34 L 39 28.167969 A 1.0001 1.0001 0 0 0 39 27.841797 L 39 22.167969 A 1.0001 1.0001 0 0 0 39 21.841797 L 39 16 A 1.0001 1.0001 0 0 0 38 15 L 21.167969 15 A 1.0001 1.0001 0 0 0 20.984375 14.986328 z M 22 17 L 37 17 L 37 21 L 22 21 L 22 17 z M 13 23 L 20 23 L 20 27 L 13 27 L 13 23 z M 22 23 L 37 23 L 37 27 L 22 27 L 22 23 z M 13 29 L 20 29 L 20 33 L 13 33 L 13 29 z M 22 29 L 37 29 L 37 33 L 22 33 L 22 29 z"/></svg>
