<svg xmlns="http://www.w3.org/2000/svg" fill="currentColor" viewBox="0 0 50 50"><path d="M 22.757812 3.9980469 A 1.0001 1.0001 0 0 0 21.886719 4.5078125 L 19.914062 7.9980469 L 16.537109 7.9980469 L 14.568359 4.5097656 A 1.0001 1.0001 0 0 0 13.697266 4.0019531 L 9.1816406 4.0019531 A 1.0001 1.0001 0 0 0 8.3105469 4.5097656 L 6.0527344 8.5097656 A 1.0001 1.0001 0 0 0 6.0527344 9.4921875 L 8.0332031 13 L 6.0527344 16.509766 A 1.0001 1.0001 0 0 0 6.0527344 17.492188 L 8.0332031 21 L 6.0527344 24.509766 A 1.0001 1.0001 0 0 0 6.0527344 25.492188 L 8.0332031 29 L 6.0527344 32.509766 A 1.0001 1.0001 0 0 0 6.0527344 33.492188 L 8.0332031 37 L 6.0527344 40.509766 A 1.0001 1.0001 0 0 0 6.0527344 41.492188 L 8.3105469 45.492188 A 1.0001 1.0001 0 0 0 9.1816406 46.001953 L 13.697266 46.001953 A 1.0001 1.0001 0 0 0 14.568359 45.492188 L 16.541016 41.998047 L 19.914062 41.998047 L 21.886719 45.490234 A 1.0001 1.0001 0 0 0 22.757812 45.998047 L 27.273438 45.998047 A 1.0001 1.0001 0 0 0 28.144531 45.490234 L 30.109375 42.007812 L 33.464844 42.007812 L 35.431641 45.492188 A 1.0001 1.0001 0 0 0 36.302734 46.001953 L 40.818359 46.001953 A 1.0001 1.0001 0 0 0 41.689453 45.492188 L 43.947266 41.492188 A 1.0001 1.0001 0 0 0 43.947266 40.509766 L 41.966797 37 L 43.947266 33.492188 A 1.0001 1.0001 0 0 0 43.947266 32.509766 L 41.966797 29 L 43.947266 25.492188 A 1.0001 1.0001 0 0 0 43.947266 24.509766 L 41.966797 21 L 43.947266 17.492188 A 1.0001 1.0001 0 0 0 43.947266 16.509766 L 41.966797 13 L 43.947266 9.4921875 A 1.0001 1.0001 0 0 0 43.947266 8.5097656 L 41.689453 4.5097656 A 1.0001 1.0001 0 0 0 40.818359 4.0019531 L 36.302734 4.0019531 A 1.0001 1.0001 0 0 0 35.431641 4.5097656 L 33.457031 8.0078125 L 30.121094 8.0078125 L 28.144531 4.5078125 A 1.0001 1.0001 0 0 0 27.273438 3.9980469 L 22.757812 3.9980469 z M 23.339844 5.9980469 L 26.689453 5.9980469 L 28.382812 8.9980469 L 26.689453 11.998047 L 23.345703 11.998047 L 21.648438 8.9941406 L 23.339844 5.9980469 z M 9.765625 6.0019531 L 13.115234 6.0019531 L 14.808594 9.0019531 L 13.113281 12.001953 L 9.765625 12.001953 L 8.0722656 9.0019531 L 9.765625 6.0019531 z M 36.886719 6.0019531 L 40.234375 6.0019531 L 41.927734 9.0019531 L 40.234375 12.001953 L 36.900391 12.001953 L 35.199219 8.9882812 L 36.886719 6.0019531 z M 16.572266 9.9980469 L 19.914062 9.9980469 L 21.609375 13 L 19.916016 15.998047 L 16.572266 15.998047 L 14.878906 12.998047 L 16.572266 9.9980469 z M 30.126953 10.007812 L 33.464844 10.007812 L 35.154297 13 L 33.457031 16.007812 L 30.126953 16.007812 L 28.433594 13.007812 L 30.126953 10.007812 z M 23.345703 13.998047 L 26.689453 13.998047 L 28.382812 16.998047 L 26.689453 19.998047 L 23.345703 19.998047 L 21.652344 17 L 23.345703 13.998047 z M 9.765625 14.001953 L 13.115234 14.001953 L 14.808594 17.001953 L 13.113281 20.001953 L 9.765625 20.001953 L 8.0722656 17.001953 L 9.765625 14.001953 z M 36.904297 14.001953 L 40.234375 14.001953 L 41.927734 17.001953 L 40.234375 20.001953 L 36.900391 20.001953 L 35.208984 17.007812 L 36.904297 14.001953 z M 16.572266 17.998047 L 19.914062 17.998047 L 21.609375 21 L 19.916016 23.998047 L 16.572266 23.998047 L 14.878906 20.998047 L 16.572266 17.998047 z M 30.126953 18.007812 L 33.464844 18.007812 L 35.154297 21 L 33.457031 24.007812 L 30.126953 24.007812 L 28.433594 21.007812 L 30.126953 18.007812 z M 23.345703 21.998047 L 26.689453 21.998047 L 28.382812 24.998047 L 26.689453 27.998047 L 23.345703 27.998047 L 21.652344 25 L 23.345703 21.998047 z M 9.765625 22.001953 L 13.115234 22.001953 L 14.808594 25.001953 L 13.113281 28.001953 L 9.765625 28.001953 L 8.0722656 25.001953 L 9.765625 22.001953 z M 36.904297 22.001953 L 40.234375 22.001953 L 41.927734 25.001953 L 40.234375 28.001953 L 36.900391 28.001953 L 35.208984 25.007812 L 36.904297 22.001953 z M 16.572266 25.998047 L 19.914062 25.998047 L 21.609375 29 L 19.916016 31.998047 L 16.572266 31.998047 L 14.878906 28.998047 L 16.572266 25.998047 z M 30.126953 26.007812 L 33.464844 26.007812 L 35.154297 29 L 33.457031 32.007812 L 30.126953 32.007812 L 28.433594 29.007812 L 30.126953 26.007812 z M 23.345703 29.998047 L 26.689453 29.998047 L 28.382812 32.998047 L 26.689453 35.998047 L 23.345703 35.998047 L 21.652344 33 L 23.345703 29.998047 z M 9.765625 30.001953 L 13.115234 30.001953 L 14.808594 33.001953 L 13.113281 36.001953 L 9.765625 36.001953 L 8.0722656 33.001953 L 9.765625 30.001953 z M 36.904297 30.001953 L 40.234375 30.001953 L 41.927734 33.001953 L 40.234375 36.001953 L 36.900391 36.001953 L 35.208984 33.007812 L 36.904297 30.001953 z M 16.572266 33.998047 L 19.914062 33.998047 L 21.609375 37 L 19.916016 39.998047 L 16.572266 39.998047 L 14.878906 36.998047 L 16.572266 33.998047 z M 30.126953 34.007812 L 33.464844 34.007812 L 35.154297 37 L 33.457031 40.007812 L 30.126953 40.007812 L 28.433594 37.007812 L 30.126953 34.007812 z M 23.345703 37.998047 L 26.689453 37.998047 L 28.382812 40.998047 L 26.689453 43.998047 L 23.339844 43.998047 L 21.650391 41.003906 L 23.345703 37.998047 z M 9.765625 38.001953 L 13.115234 38.001953 L 14.808594 41.001953 L 13.113281 44.001953 L 9.765625 44.001953 L 8.0722656 41.001953 L 9.765625 38.001953 z M 36.904297 38.001953 L 40.234375 38.001953 L 41.927734 41.001953 L 40.234375 44.001953 L 36.886719 44.001953 L 35.201172 41.019531 L 36.904297 38.001953 z"/></svg>
